<svg width="19" height="19" viewBox="0 0 19 19" fill="none" xmlns="http://www.w3.org/2000/svg">
<path d="M0.5 18.5V16.5C0.5 15.4391 1.13214 14.4217 2.25736 13.6716C3.38258 12.9214 4.9087 12.5 6.5 12.5H12.5C14.0913 12.5 15.6174 12.9214 16.7426 13.6716C17.8679 14.4217 18.5 15.4391 18.5 16.5V18.5M3.5 4.5C3.5 5.56087 4.13214 6.57828 5.25736 7.32843C6.38258 8.07857 7.9087 8.5 9.5 8.5C11.0913 8.5 12.6174 8.07857 13.7426 7.32843C14.8679 6.57828 15.5 5.56087 15.5 4.5C15.5 3.43913 14.8679 2.42172 13.7426 1.67157C12.6174 0.921427 11.0913 0.5 9.5 0.5C7.9087 0.5 6.38258 0.921427 5.25736 1.67157C4.13214 2.42172 3.5 3.43913 3.5 4.5Z" stroke="black" stroke-linecap="round" stroke-linejoin="round"/>
</svg>
